<?xml version="1.0" standalone="no"?>
<!DOCTYPE svg PUBLIC "-//W3C//DTD SVG 20010904//EN"
 "http://www.w3.org/TR/2001/REC-SVG-20010904/DTD/svg10.dtd">
<svg version="1.0" xmlns="http://www.w3.org/2000/svg"
 width="512.000000pt" height="512.000000pt" viewBox="0 0 512.000000 512.000000"
 preserveAspectRatio="xMidYMid meet">

<g transform="translate(0.000000,512.000000) scale(0.100000,-0.100000)"
fill="#000000" stroke="none">
<path d="M2175 5101 c-88 -21 -126 -79 -133 -202 l-5 -89 -139 0 c-156 0 -185
-8 -218 -63 -19 -31 -20 -57 -20 -937 l0 -905 130 130 130 130 0 692 0 693 59
0 58 0 5 -83 c6 -90 22 -133 64 -166 61 -48 141 -51 205 -8 52 35 71 76 77
172 l5 85 118 0 119 0 0 -81 c0 -97 17 -140 70 -175 47 -31 98 -40 143 -25 87
29 126 94 127 209 l0 72 120 0 120 0 0 -77 c0 -91 22 -146 73 -180 67 -46 145
-42 204 10 48 43 63 82 63 172 l0 75 120 0 120 0 0 -75 c0 -90 15 -129 63
-172 59 -52 137 -56 204 -10 51 34 73 89 73 180 l0 77 120 0 120 0 0 -72 c1
-115 40 -180 127 -209 45 -15 96 -6 143 25 53 35 70 78 70 175 l0 81 75 0 75
0 0 -2140 0 -2140 -1470 0 -1470 0 0 520 c0 286 -3 520 -8 520 -4 0 -62 -55
-130 -123 l-122 -122 0 -474 c0 -536 -2 -524 74 -561 42 -20 51 -20 1656 -20
1605 0 1614 0 1656 20 81 40 74 -190 74 2387 0 2234 -1 2299 -19 2327 -40 60
-60 66 -233 66 l-158 0 0 86 c0 69 -4 94 -21 124 -28 50 -90 84 -149 83 -112
-2 -170 -76 -170 -218 l0 -75 -120 0 -120 0 0 80 c0 93 -14 135 -59 173 -78
66 -185 53 -248 -30 -25 -33 -28 -46 -31 -130 l-4 -93 -118 0 -118 0 -4 93
c-3 84 -6 97 -31 130 -63 83 -170 96 -248 30 -45 -38 -59 -80 -59 -173 l0 -80
-120 0 -120 0 0 75 c0 142 -58 216 -170 218 -59 1 -121 -33 -149 -83 -17 -30
-21 -55 -21 -124 l0 -86 -119 0 -118 0 -5 89 c-4 68 -11 98 -27 125 -38 61
-117 93 -186 77z"/>
<path d="M3255 3805 c-55 -19 -219 -79 -365 -133 l-265 -97 -1281 -1285 c-998
-1002 -1285 -1295 -1303 -1333 -108 -227 18 -510 266 -591 64 -21 190 -22 256
-1 140 43 87 -7 1420 1324 686 685 1247 1251 1247 1258 0 6 59 174 130 372 72
198 130 374 130 391 0 49 -27 90 -73 111 -23 10 -46 19 -52 19 -5 0 -55 -16
-110 -35z m-156 -369 l22 -23 -32 -89 c-17 -49 -35 -92 -38 -96 -4 -4 -45 30
-91 77 -46 46 -82 86 -79 89 8 8 163 64 180 65 8 1 25 -10 38 -23z m-119 -381
c0 -13 -2162 -2175 -2175 -2175 -5 0 -65 55 -132 122 l-123 123 1092 1092
1093 1093 122 -122 c68 -68 123 -127 123 -133z m-2442 -2178 l123 -123 -69
-66 c-48 -47 -80 -70 -110 -78 -101 -27 -206 39 -219 138 -10 77 3 110 74 184
37 37 69 68 72 68 4 0 62 -55 129 -123z"/>
</g>
</svg>
